<svg xmlns="http://www.w3.org/2000/svg" xmlns:xlink="http://www.w3.org/1999/xlink" xml:space="preserve" version="1.1" style="shape-rendering:geometricPrecision;text-rendering:geometricPrecision;image-rendering:optimizeQuality;" viewBox="0 0 2539.98 3174.975" x="0px" y="0px" fill-rule="evenodd" clip-rule="evenodd"><defs><style type="text/css">
   
    .fil0 {fill:black;fill-rule:nonzero}
   
  </style></defs><g><path class="fil0" d="M1137.41 316.32l0 565.51 -233.42 0 -2.52 318.44 501.1 0 0 -232.77 565.51 0 0 565.51 -565.51 0 0 -232.74 -501.89 0 -4.68 590.84 492.2 -0.01 0 -232.95 565.5 0 0 565.5 -565.5 0 0 -232.95 -592.59 0.01 8.78 -1108.88 -232.49 0 0 -565.51 565.51 0zm716.29 1441.83l-365.5 0 0 365.5 365.5 0 0 -365.5zm14.38 -690.65l-365.51 0 0 365.51 365.51 0 0 -365.51zm-830.67 -651.18l-365.51 0 0 365.51 365.51 0 0 -365.51z"/></g><text x="0" y="2554.98" fill="#000000" font-size="5px" font-weight="bold" font-family="'Helvetica Neue', Helvetica, Arial-Unicode, Arial, Sans-serif">Created by Fahmi</text><text x="0" y="2559.98" fill="#000000" font-size="5px" font-weight="bold" font-family="'Helvetica Neue', Helvetica, Arial-Unicode, Arial, Sans-serif">from the Noun Project</text></svg>